<svg
	xmlns="http://www.w3.org/2000/svg"
	viewBox="0 0 800 400"
>
	<path
		d="M311.45 249.94V206.4c0-7.48-4.53-11.23-10.64-11.23-5.12 0-10.84 3.55-14.38 6.9v47.87h-19.7V206.4c0-7.48-4.53-11.23-10.64-11.23-5.12 0-10.84 3.55-14.38 6.9v47.87H222V180.4h18.71l1.18 5.51a30.78 30.78 0 0 1 20.69-7.68c8.86 0 16.35 3.74 20.49 11.62l3.94-3.94c2.36-2.36 9.26-7.68 20.49-7.68 14 0 23.64 9.06 23.64 28.37v43.34zM357.88 220.39a21.68 21.68 0 0 0 21.07 16c12.61 0 21.68-4.73 24.63-5.91V246c-2.17 1.18-9.65 6.11-26.6 6.11-19.3 0-38.81-13.79-38.81-36.84 0-20.69 16.36-37 35.47-37 17.92 0 30.93 13.59 30.93 32.9v9.26zm15.95-26.79c-8.27 0-14 6.5-15.36 14.38h28.36c0-6.7-4.53-14.38-13-14.38zM449.12 195.37c-8.07 0-13 4.73-15 6.5v48.07h-19.7V180.4h18.72l1 7.29a20.86 20.86 0 0 1 17.53-9.46 38.92 38.92 0 0 1 8.48 1V197a39.29 39.29 0 0 0-11.03-1.63zM496.91 252.11c-21.67 0-39.2-16-39.2-36.84s17.53-37 39.2-37c21.48 0 39 16.15 39 37s-17.52 36.84-39 36.84zm0-57.53c-10.64 0-19.5 8.87-19.5 20.69s8.86 20.49 19.5 20.49c10.44 0 19.31-8.67 19.31-20.49s-8.87-20.69-19.31-20.69zM562 252.11c-11 0-17.93-3.15-22.26-4.73v-17.53c3.15 1.37 14 6.3 21.86 6.3 5.72 0 8.67-2 8.67-4.93 0-2.16-1.57-3.94-7.09-6.69-10.05-5.13-24-11-24-24.63 0-14.18 11.82-21.67 25.61-21.67 9.45 0 18.71 3.55 21.67 4.92v16.36c-3.35-1.58-12.41-5.52-20.69-5.52-5.52 0-8.47 2-8.47 4.73 0 2.56 2.17 4.14 6.7 6.3 11.42 5.52 24.62 10.84 24.62 25.22.01 14.76-13.19 21.87-26.62 21.87z"
		style="
			fill: #8435ff;
			stroke: #8435ff;
			stroke-miterlimit: 2.0833332538604736;
		"
	/>
	<g style="opacity: 0.36">
		<path
			style="
				fill: none;
				stroke: #8435ff;
				stroke-miterlimit: 2.0833332538604736;
				stroke-width: 7.812499701976776px;
			"
			d="M662.5-25.32V51.9l77.23-77.22H662.5zM739.73-25.32l77.22 77.22v-77.22h-77.22zM662.5 129.13h77.23L662.5 51.9v77.23zM816.95 129.13V51.9l-77.22 77.23h77.22zM-67.83 310.94h221.89L43.12 200-67.83 310.94zM265.01 421.89 154.06 310.94v221.9l110.95-110.95z"
		/>
		<circle
			cx="701.11"
			cy="304.02"
			r="34.67"
			style="
				fill: none;
				stroke: #8435ff;
				stroke-miterlimit: 2.0833332538604736;
				stroke-width: 28px;
			"
		/>
		<circle
			cx="750.14"
			cy="353.05"
			r="34.67"
			style="
				fill: none;
				stroke: #8435ff;
				stroke-miterlimit: 2.0833332538604736;
				stroke-width: 28px;
			"
		/>
		<circle
			cx="652.09"
			cy="353.05"
			r="34.67"
			style="
				fill: none;
				stroke: #8435ff;
				stroke-miterlimit: 2.0833332538604736;
				stroke-width: 28px;
			"
		/>
		<circle
			cx="701.11"
			cy="402.08"
			r="34.67"
			style="
				fill: none;
				stroke: #8435ff;
				stroke-miterlimit: 2.0833332538604736;
				stroke-width: 28px;
			"
		/>
		<circle
			cx="117.64"
			cy="80.2"
			r="28.3"
			style="
				fill: none;
				stroke: #8435ff;
				stroke-miterlimit: 2.0833332538604736;
				stroke-width: 27px;
			"
		/>
		<path
			style="
				fill: none;
				stroke: #8435ff;
				stroke-miterlimit: 2.0833332538604736;
				stroke-width: 7.812499701976776px;
			"
			d="M225.31 208.71 474.28-40.26M209.54 298.52 458.51 49.55M419.21 158.01l98.74-98.74"
		/>
	</g>
</svg>
